<svg width="14" height="14" viewBox="0 0 14 14" fill="none" xmlns="http://www.w3.org/2000/svg">
<path d="M11.75 10.48C10.5883 10.4729 9.44946 10.157 8.45014 9.56463C7.45083 8.97228 6.62703 8.12482 6.06321 7.10913C5.4994 6.09345 5.21585 4.94609 5.24164 3.78469C5.26743 2.6233 5.60164 1.48965 6.20999 0.5C4.60717 0.781382 3.16649 1.64934 2.16859 2.9348C1.17069 4.22026 0.687035 5.83116 0.811846 7.4537C0.936656 9.07624 1.66099 10.5942 2.84375 11.7119C4.02651 12.8297 5.58299 13.4671 7.20999 13.5C8.32312 13.5028 9.41809 13.218 10.3887 12.6731C11.3594 12.1282 12.1728 11.3418 12.75 10.39C12.4193 10.4446 12.0851 10.4747 11.75 10.48V10.48Z" stroke-linecap="round" stroke-linejoin="round"/>
</svg>
